# xmcd CD database file
#
# Track frame offsets:
#	150
#	12313
#	23459
#	36059
#	47552
#	60316
#	75452
#	92016
#	107635
#	116629
#	128364
#	137108
#	150552
#	162023
#	173571
#	185055
#	196083
#	209762
#	223864
#	235407
#
# Disc length: 3283 seconds
#
# Revision: 1
# Processed by: cddbd v1.5.2PL0 Copyright (c) Steve Scherf et al.
# Submitted via: CDex 1.70beta2
#
DISCID=fe0cd114
DTITLE=B.B. King - Three O'Clock Blues
DYEAR=2002
DGENRE=Blues
TTITLE0=Miss Martha King
TTITLE1=When Your Baby Packs Up And Goes
TTITLE2=Got The Blues
TTITLE3=Take A Swing With Me
TTITLE4=Mistreated Woman
TTITLE5=B.B.'s Boogie
TTITLE6=The Other Night Blues
TTITLE7=Walkin' And Cryin'
TTITLE8=My Baby's Gone
TTITLE9=Don't Your Want A Man Like Me
TTITLE10=A New Way Of Driving
TTITLE11=Questionnaire Blues
TTITLE12=She's Dynamite
TTITLE13=She's A Mean Woman
TTITLE14=Hard Working Woman
TTITLE15=That Ain't The Way To Do It
TTITLE16=Three  O'clock Blues
TTITLE17=She Don't Move Me No More
TTITLE18=Shake It Up And Go
TTITLE19=Everything I Do Is Wrong
EXTD=YEAR: 2002
EXTT0=
EXTT1=
EXTT2=
EXTT3=
EXTT4=
EXTT5=
EXTT6=
EXTT7=
EXTT8=
EXTT9=
EXTT10=
EXTT11=
EXTT12=
EXTT13=
EXTT14=
EXTT15=
EXTT16=
EXTT17=
EXTT18=
EXTT19=
PLAYORDER=
